<?xml version="1.0" encoding="UTF-8" standalone="no"?>
<svg
   xmlns:dc="http://purl.org/dc/elements/1.1/"
   xmlns:cc="http://creativecommons.org/ns#"
   xmlns:rdf="http://www.w3.org/1999/02/22-rdf-syntax-ns#"
   xmlns:svg="http://www.w3.org/2000/svg"
   xmlns="http://www.w3.org/2000/svg"
   xmlns:sodipodi="http://sodipodi.sourceforge.net/DTD/sodipodi-0.dtd"
   xmlns:inkscape="http://www.inkscape.org/namespaces/inkscape"
   width="220"
   height="79"
   viewBox="0 0 220 79"
   version="1.1"
   id="svg85"
   sodipodi:docname="logo.svg"
   inkscape:version="0.92.3 (2405546, 2018-03-11)">
  <metadata
     id="metadata89">
    <rdf:RDF>
      <cc:Work
         rdf:about="">
        <dc:format>image/svg+xml</dc:format>
        <dc:type
           rdf:resource="http://purl.org/dc/dcmitype/StillImage" />
      </cc:Work>
    </rdf:RDF>
  </metadata>
  <sodipodi:namedview
     pagecolor="#ffffff"
     bordercolor="#666666"
     borderopacity="1"
     objecttolerance="10"
     gridtolerance="10"
     guidetolerance="10"
     inkscape:pageopacity="0"
     inkscape:pageshadow="2"
     inkscape:window-width="1920"
     inkscape:window-height="1017"
     id="namedview87"
     showgrid="false"
     inkscape:zoom="2.6090909"
     inkscape:cx="74.685969"
     inkscape:cy="41.182305"
     inkscape:window-x="-8"
     inkscape:window-y="-8"
     inkscape:window-maximized="1"
     inkscape:current-layer="svg85" />
  <defs
     id="defs11">
    <clipPath
       id="tzxua">
      <path
         d="M0 78.387V-.027h220v78.414z"
         id="path2" />
    </clipPath>
    <clipPath
       id="tzxub">
      <path
         d="M0 78.387V-.027h220v78.414z"
         id="path5" />
    </clipPath>
    <clipPath
       id="tzxuc">
      <path
         d="M0 78.387V-.027h220v78.414z"
         id="path8" />
    </clipPath>
  </defs>
  <path
     id="path77"
     style="fill:#000000;fill-opacity:1"
     d="M 175.788,1.818 V 52.69 H 220 V 32.942 h -1.989 l -0.005,0.046 -0.01,0.093 -0.01,0.046 -0.006,0.046 -0.01,0.103 -0.005,0.051 -0.005,0.052 -0.01,0.052 -0.005,0.05 -0.006,0.057 -0.004,0.057 -0.006,0.05 -0.01,0.058 -0.005,0.061 -0.005,0.057 -0.01,0.057 -0.005,0.06 -0.006,0.063 -0.01,0.062 -0.005,0.06 -0.016,0.124 -0.015,0.129 -0.016,0.133 -0.015,0.134 -0.015,0.133 -0.016,0.14 -0.02,0.143 -0.016,0.144 -0.02,0.144 -0.021,0.15 -0.02,0.148 -0.021,0.154 -0.02,0.155 -0.026,0.154 -0.026,0.159 -0.02,0.164 -0.026,0.16 -0.031,0.164 -0.026,0.164 -0.03,0.17 -0.031,0.17 -0.031,0.17 -0.036,0.168 -0.031,0.176 -0.072,0.349 -0.041,0.174 -0.041,0.18 -0.041,0.175 -0.042,0.18 -0.046,0.18 -0.046,0.184 -0.046,0.18 -0.046,0.18 -0.103,0.37 -0.057,0.185 -0.056,0.18 -0.057,0.185 -0.062,0.185 -0.123,0.37 -0.067,0.19 -0.066,0.186 -0.072,0.184 -0.144,0.37 -0.077,0.185 -0.077,0.18 -0.083,0.185 -0.082,0.185 -0.082,0.18 -0.087,0.185 -0.093,0.18 -0.092,0.18 -0.093,0.185 -0.097,0.174 -0.098,0.18 -0.103,0.18 -0.107,0.174 -0.052,0.088 -0.057,0.088 -0.051,0.087 -0.057,0.087 -0.056,0.088 -0.057,0.082 -0.056,0.087 -0.062,0.087 -0.056,0.082 -0.062,0.088 -0.057,0.082 -0.061,0.082 -0.062,0.088 -0.062,0.082 -0.066,0.082 -0.062,0.083 -0.067,0.082 -0.061,0.082 -0.067,0.082 -0.067,0.077 -0.067,0.083 -0.072,0.077 -0.067,0.081 -0.071,0.078 -0.073,0.077 -0.066,0.082 -0.077,0.077 -0.072,0.077 -0.072,0.072 -0.077,0.077 -0.072,0.077 -0.077,0.072 -0.077,0.077 -0.077,0.072 -0.083,0.072 -0.077,0.072 -0.082,0.072 -0.077,0.072 -0.082,0.072 -0.083,0.072 -0.087,0.067 -0.082,0.071 -0.175,0.134 -0.088,0.067 -0.174,0.134 -0.087,0.062 -0.093,0.066 -0.185,0.124 -0.092,0.066 -0.093,0.062 -0.097,0.056 -0.093,0.062 -0.097,0.062 -0.098,0.056 -0.103,0.056 -0.195,0.114 -0.103,0.057 -0.103,0.056 -0.102,0.051 -0.108,0.052 -0.103,0.05 -0.108,0.052 -0.108,0.052 -0.108,0.051 -0.108,0.046 -0.108,0.052 -0.113,0.046 -0.112,0.047 -0.114,0.046 -0.113,0.04 -0.118,0.047 -0.113,0.04 -0.118,0.042 -0.237,0.082 -0.122,0.041 -0.12,0.037 -0.37,0.108 -0.128,0.035 -0.123,0.031 -0.385,0.093 -0.134,0.03 -0.128,0.026 -0.133,0.026 -0.134,0.03 -0.14,0.021 -0.133,0.026 -0.139,0.02 -0.138,0.026 -0.14,0.021 -0.138,0.015 -0.144,0.02 -0.144,0.016 -0.143,0.015 -0.144,0.016 -0.144,0.016 -0.15,0.014 -0.148,0.01 -0.149,0.012 -0.15,0.01 -0.154,0.005 -0.154,0.005 -0.154,0.01 h -0.154 l -0.16,0.006 H 184.611 V 28.652 H 205.71 V 25.28 h -21.1 V 4.08 h 20.015 l 0.143,0.005 0.144,0.006 0.144,0.005 0.139,0.01 0.139,0.005 0.138,0.01 0.278,0.021 0.133,0.01 0.134,0.01 0.134,0.01 0.134,0.016 0.128,0.016 0.133,0.015 0.129,0.015 0.128,0.016 0.124,0.015 0.128,0.016 0.123,0.02 0.124,0.02 0.123,0.021 0.123,0.015 0.124,0.026 0.118,0.02 0.118,0.021 0.118,0.026 0.118,0.02 0.113,0.027 0.119,0.025 0.113,0.026 0.113,0.025 0.113,0.032 0.108,0.025 0.113,0.03 0.108,0.027 0.108,0.03 0.107,0.03 0.103,0.032 0.108,0.03 0.103,0.032 0.103,0.035 0.102,0.031 0.207,0.072 0.097,0.037 0.102,0.036 0.196,0.072 0.092,0.036 0.098,0.04 0.092,0.036 0.098,0.041 0.092,0.041 0.088,0.042 0.092,0.041 0.093,0.041 0.087,0.041 0.087,0.041 0.088,0.047 0.087,0.04 0.088,0.046 0.087,0.042 0.082,0.046 0.082,0.046 0.082,0.046 0.083,0.047 0.082,0.046 0.082,0.051 0.077,0.046 0.082,0.047 0.077,0.052 0.078,0.05 0.077,0.047 0.072,0.052 0.077,0.051 0.072,0.05 0.072,0.052 0.077,0.057 0.066,0.051 0.072,0.052 0.072,0.057 0.072,0.05 0.067,0.057 0.067,0.051 0.2,0.17 0.068,0.056 0.06,0.057 0.068,0.056 0.061,0.058 0.062,0.06 0.123,0.114 0.18,0.18 0.056,0.061 0.057,0.057 0.113,0.124 0.057,0.06 0.108,0.124 0.107,0.129 0.104,0.123 0.102,0.129 0.103,0.128 0.092,0.128 0.098,0.134 0.092,0.128 0.175,0.268 0.087,0.138 0.083,0.134 0.082,0.134 0.077,0.138 0.077,0.14 0.077,0.138 0.144,0.277 0.067,0.145 0.067,0.138 0.066,0.144 0.062,0.139 0.062,0.144 0.061,0.143 0.057,0.144 0.056,0.144 0.057,0.144 0.052,0.144 0.051,0.144 0.051,0.143 0.046,0.145 0.046,0.148 0.047,0.144 0.046,0.144 0.041,0.144 0.041,0.144 0.041,0.15 0.041,0.143 0.036,0.144 0.073,0.287 0.035,0.144 0.031,0.144 0.031,0.144 0.03,0.144 0.032,0.144 0.03,0.139 0.032,0.144 0.025,0.139 0.026,0.143 0.025,0.139 0.052,0.277 0.02,0.139 0.026,0.134 0.021,0.138 0.02,0.134 0.026,0.134 0.02,0.133 0.02,0.134 0.021,0.134 0.016,0.128 0.02,0.133 0.021,0.13 0.016,0.123 0.02,0.128 0.015,0.123 0.02,0.123 0.016,0.124 0.021,0.123 0.015,0.118 0.02,0.118 0.016,0.118 0.02,0.113 0.017,0.119 0.02,0.108 0.015,0.113 H 220 V 1.819 Z M 156.791,64.087 V 78.15 h 10.4 v -2.636 h -6.993 V 64.087 Z m -23.986,0 V 78.15 h 10.775 v -2.636 h -7.446 V 72.4 h 6.44 v -2.62 h -6.44 v -3.073 h 7.308 v -2.62 z m -24.064,0 v 2.62 h 4.866 V 78.15 h 3.407 V 66.707 h 4.887 v -2.62 z m -37.896,0 v 5.632 H 64.54 V 64.087 H 61.133 V 78.15 h 3.407 v -5.827 h 6.305 v 5.827 h 3.427 V 64.087 Z M 114.018,52.69 h -8.026 l -0.16,-6.054 -0.076,0.129 -0.072,0.128 -0.077,0.129 -0.077,0.123 -0.078,0.123 -0.077,0.128 -0.082,0.12 -0.077,0.122 -0.082,0.123 -0.082,0.119 -0.083,0.118 -0.087,0.113 -0.087,0.118 -0.082,0.113 -0.088,0.113 -0.092,0.113 -0.088,0.113 -0.092,0.108 -0.185,0.216 -0.093,0.108 -0.092,0.108 -0.195,0.205 -0.098,0.103 -0.098,0.103 -0.41,0.39 -0.104,0.098 -0.215,0.185 -0.108,0.093 -0.108,0.092 -0.108,0.088 -0.113,0.092 -0.113,0.087 -0.113,0.087 -0.113,0.083 -0.118,0.087 -0.119,0.082 -0.118,0.083 -0.118,0.082 -0.118,0.082 -0.124,0.077 -0.123,0.077 -0.123,0.078 -0.123,0.076 -0.129,0.078 -0.128,0.072 -0.129,0.071 -0.128,0.073 -0.134,0.07 -0.134,0.073 -0.267,0.134 -0.133,0.067 -0.14,0.067 -0.138,0.061 -0.139,0.067 -0.143,0.062 -0.14,0.061 -0.143,0.062 -0.15,0.056 -0.143,0.062 -0.298,0.113 -0.149,0.057 -0.149,0.05 -0.154,0.057 -0.154,0.052 -0.154,0.051 -0.155,0.051 -0.159,0.047 -0.16,0.052 -0.318,0.091 -0.164,0.047 -0.165,0.046 -0.164,0.041 -0.17,0.041 -0.164,0.041 -0.17,0.041 -0.174,0.042 -0.17,0.041 -0.175,0.036 -0.174,0.036 -0.175,0.036 -0.18,0.036 -0.18,0.03 -0.18,0.037 -0.18,0.03 -0.184,0.031 -0.37,0.062 -0.185,0.026 -0.19,0.026 -0.19,0.03 -0.19,0.026 -0.196,0.02 -0.195,0.026 -0.196,0.02 -0.195,0.027 -0.2,0.02 -0.2,0.016 -0.201,0.02 -0.2,0.02 -0.206,0.016 -0.206,0.015 -0.21,0.016 -0.206,0.015 -0.21,0.015 -0.211,0.011 -0.216,0.01 -0.216,0.016 -0.216,0.01 -0.215,0.005 -0.221,0.01 -0.221,0.005 -0.221,0.01 -0.221,0.006 -0.226,0.005 H 87.91 l -0.232,0.005 h -0.226 l -0.231,0.005 h -0.468 l -0.236,-0.005 h -0.236 l -0.237,-0.005 -0.241,-0.005 -0.242,-0.005 -0.241,-0.011 -0.247,-0.005 -0.493,-0.02 -0.252,-0.016 -0.252,-0.01 -0.251,-0.016 -0.252,-0.01 -0.257,-0.015 -0.257,-0.02 -0.257,-0.016 -0.257,-0.015 -0.257,-0.02 -0.262,-0.021 -0.257,-0.021 -0.262,-0.02 -0.262,-0.026 -0.262,-0.02 -0.262,-0.027 -0.267,-0.02 -0.262,-0.026 -0.268,-0.025 -0.262,-0.031 -0.267,-0.027 -0.53,-0.056 -0.534,-0.057 -0.534,-0.061 -0.53,-0.067 -0.528,-0.062 -0.535,-0.066 -0.524,-0.072 -0.53,-0.067 -0.261,-0.036 -0.257,-0.036 -0.262,-0.041 -0.262,-0.036 -0.514,-0.072 -0.257,-0.036 -0.257,-0.04 -0.257,-0.037 -0.252,-0.041 -0.252,-0.036 -0.251,-0.04 -0.247,-0.037 -0.252,-0.041 -0.246,-0.036 -0.247,-0.042 -0.242,-0.035 -0.241,-0.041 -0.242,-0.036 -0.236,-0.042 -0.236,-0.04 -0.237,-0.036 -0.23,-0.041 -0.232,-0.036 -0.231,-0.041 -0.227,-0.037 -0.226,-0.041 -0.22,-0.036 -0.222,-0.04 -0.431,-0.073 -0.216,-0.04 -0.21,-0.037 -0.206,-0.036 -0.206,-0.036 -0.205,-0.04 -0.2,-0.037 -0.196,-0.036 -0.098,-0.016 -0.097,-0.014 -0.098,-0.021 -0.092,-0.015 -0.098,-0.021 -0.092,-0.016 -0.093,-0.015 -0.092,-0.02 -0.093,-0.016 -0.092,-0.016 -0.088,-0.02 -0.087,-0.015 -0.093,-0.016 -0.087,-0.015 -0.087,-0.021 -0.083,-0.015 -0.087,-0.015 -0.082,-0.016 -0.087,-0.016 -0.083,-0.015 -0.082,-0.015 -0.077,-0.016 -0.082,-0.015 -0.077,-0.015 -0.082,-0.016 -0.078,-0.016 -0.077,-0.015 -0.072,-0.015 -0.077,-0.016 -0.072,-0.01 -0.072,-0.015 -0.077,-0.016 -0.066,-0.015 -0.072,-0.01 -0.067,-0.016 -0.072,-0.01 -0.067,-0.015 -0.067,-0.016 -0.061,-0.01 -0.067,-0.016 -0.062,-0.01 -0.061,-0.01 -0.062,-0.016 -0.062,-0.01 -0.056,-0.01 -0.062,-0.015 -0.057,-0.011 -0.056,-0.01 -0.057,-0.01 -0.051,-0.01 -0.051,-0.011 -0.052,-0.01 -0.051,-0.01 -0.052,-0.01 -0.046,-0.011 -0.051,-0.01 -0.046,-0.01 -0.042,-0.01 -0.046,-0.006 -0.04,-0.01 -0.042,-0.01 -0.041,-0.005 -0.041,-0.011 -0.041,-0.005 -0.036,-0.01 -0.036,-0.006 -0.036,-0.01 -0.031,-0.005 -0.03,-0.005 -0.032,-0.01 -0.061,-0.01 -0.026,-0.006 -0.026,-0.005 -0.051,-0.01 -0.02,-0.005 -0.021,-0.005 -0.02,-0.005 H 61.236 L 61.22,51.163 61.2,51.158 h -0.01 l -0.016,-0.005 h -0.01 L 61.148,51.148 H 61.133 V 1.818 h 7.24 v 25.765 l 0.005,0.349 v 0.35 l 0.005,0.35 0.005,0.343 0.006,0.34 0.005,0.344 0.01,0.334 0.005,0.338 0.01,0.335 0.01,0.328 0.011,0.33 0.015,0.329 0.016,0.323 0.015,0.324 0.016,0.318 0.02,0.32 0.016,0.313 0.02,0.313 0.026,0.314 0.02,0.307 0.026,0.304 0.026,0.303 0.015,0.15 0.016,0.153 0.015,0.15 0.015,0.148 0.016,0.15 0.015,0.148 0.016,0.144 0.02,0.149 0.016,0.144 0.015,0.15 0.02,0.143 0.021,0.143 0.016,0.144 0.02,0.145 0.02,0.138 0.021,0.144 0.02,0.14 0.021,0.142 0.026,0.14 0.041,0.277 0.026,0.138 0.026,0.14 0.02,0.133 0.026,0.138 0.026,0.135 0.025,0.133 0.026,0.138 0.03,0.135 0.026,0.133 0.031,0.129 0.026,0.133 0.03,0.128 0.032,0.134 0.03,0.128 0.124,0.514 0.036,0.128 0.03,0.124 0.037,0.128 0.036,0.124 0.036,0.123 0.107,0.37 0.042,0.118 0.035,0.123 0.042,0.12 0.036,0.117 0.04,0.124 0.042,0.118 0.04,0.113 0.047,0.118 0.041,0.118 0.046,0.113 0.042,0.118 0.046,0.114 0.046,0.112 0.046,0.113 0.047,0.114 0.046,0.108 0.051,0.113 0.046,0.107 0.052,0.113 0.051,0.108 0.052,0.108 0.051,0.108 0.051,0.108 0.057,0.102 0.051,0.108 0.057,0.103 0.056,0.103 0.17,0.308 0.056,0.103 0.062,0.103 0.062,0.098 0.056,0.097 0.062,0.098 0.067,0.097 0.123,0.196 0.067,0.098 0.067,0.092 0.066,0.098 0.134,0.184 0.067,0.093 0.072,0.088 0.144,0.184 0.072,0.088 0.072,0.087 0.071,0.088 0.078,0.087 0.071,0.087 0.078,0.088 0.077,0.082 0.077,0.087 0.082,0.083 0.077,0.082 0.247,0.246 0.082,0.078 0.087,0.076 0.082,0.082 0.088,0.078 0.087,0.076 0.088,0.078 0.087,0.071 0.092,0.078 0.088,0.071 0.092,0.073 0.093,0.077 0.092,0.072 0.098,0.067 0.092,0.072 0.098,0.071 0.293,0.201 0.103,0.067 0.102,0.067 0.098,0.066 0.108,0.062 0.103,0.062 0.102,0.067 0.108,0.061 0.108,0.062 0.108,0.056 0.108,0.062 0.113,0.057 0.108,0.061 0.113,0.056 0.113,0.057 0.113,0.057 0.118,0.05 0.113,0.058 0.119,0.05 0.118,0.058 0.123,0.05 0.118,0.052 0.124,0.052 0.123,0.046 0.123,0.051 0.124,0.047 0.128,0.046 0.257,0.092 0.128,0.046 0.129,0.047 0.134,0.04 0.4,0.124 0.134,0.04 0.139,0.043 0.138,0.036 0.14,0.04 0.143,0.036 0.139,0.037 0.144,0.036 0.144,0.03 0.143,0.036 0.15,0.03 0.148,0.037 0.15,0.03 0.148,0.032 0.15,0.026 0.154,0.03 0.154,0.026 0.154,0.03 0.154,0.026 0.319,0.052 0.159,0.02 0.16,0.026 0.164,0.02 0.164,0.021 0.329,0.041 0.17,0.021 0.164,0.015 0.17,0.02 0.174,0.016 0.17,0.016 0.175,0.015 0.174,0.015 0.175,0.01 0.18,0.016 0.175,0.01 0.185,0.01 0.18,0.011 0.18,0.01 0.184,0.006 0.185,0.01 0.185,0.004 0.38,0.011 0.19,0.005 h 0.19 l 0.196,0.005 h 0.766 l 0.185,-0.005 h 0.185 l 0.18,-0.005 0.184,-0.005 0.18,-0.006 0.18,-0.004 0.175,-0.005 0.18,-0.011 0.174,-0.01 0.175,-0.005 0.17,-0.01 0.174,-0.01 0.17,-0.016 0.17,-0.01 0.164,-0.016 0.17,-0.01 0.164,-0.015 0.164,-0.016 0.165,-0.015 0.16,-0.021 0.164,-0.016 0.159,-0.02 0.16,-0.02 0.153,-0.02 0.16,-0.021 0.154,-0.021 0.154,-0.02 0.154,-0.027 0.149,-0.025 0.15,-0.021 0.153,-0.025 0.144,-0.026 0.15,-0.031 0.143,-0.026 0.149,-0.03 0.144,-0.032 0.139,-0.025 0.144,-0.03 0.138,-0.037 0.139,-0.03 0.139,-0.032 0.138,-0.036 0.134,-0.035 0.139,-0.037 0.133,-0.036 0.129,-0.035 0.133,-0.036 0.134,-0.042 0.129,-0.036 0.128,-0.04 0.128,-0.041 0.124,-0.041 0.128,-0.042 0.124,-0.046 0.123,-0.04 0.123,-0.047 0.118,-0.041 0.124,-0.047 0.118,-0.046 0.118,-0.051 0.118,-0.046 0.113,-0.047 0.119,-0.051 0.113,-0.051 0.113,-0.052 0.113,-0.051 0.108,-0.052 0.113,-0.051 0.108,-0.056 0.107,-0.052 0.108,-0.056 0.108,-0.057 0.103,-0.057 0.108,-0.056 0.103,-0.056 0.102,-0.062 0.098,-0.057 0.103,-0.061 0.097,-0.062 0.103,-0.062 0.098,-0.061 0.092,-0.062 0.098,-0.067 0.098,-0.061 0.092,-0.067 0.37,-0.268 0.087,-0.067 0.088,-0.071 0.087,-0.067 0.175,-0.144 0.087,-0.072 0.083,-0.072 0.087,-0.072 0.082,-0.077 0.082,-0.072 0.077,-0.077 0.083,-0.077 0.077,-0.072 0.082,-0.077 0.077,-0.082 0.077,-0.078 0.077,-0.076 0.072,-0.082 0.077,-0.083 0.072,-0.077 0.072,-0.082 0.072,-0.082 0.072,-0.087 0.072,-0.083 0.067,-0.082 0.072,-0.087 0.066,-0.088 0.2,-0.262 0.068,-0.087 0.061,-0.087 0.067,-0.093 0.062,-0.088 0.061,-0.092 0.124,-0.185 0.056,-0.092 0.062,-0.093 0.056,-0.093 0.057,-0.097 0.062,-0.093 0.051,-0.097 0.057,-0.098 0.056,-0.097 0.057,-0.098 0.05,-0.097 0.052,-0.103 0.052,-0.098 0.051,-0.103 0.051,-0.097 0.052,-0.103 0.051,-0.103 0.046,-0.103 0.052,-0.102 0.046,-0.103 0.046,-0.108 0.047,-0.103 0.046,-0.108 0.041,-0.108 0.046,-0.108 0.046,-0.107 0.042,-0.108 0.04,-0.108 0.042,-0.108 0.04,-0.114 0.042,-0.108 0.041,-0.113 0.041,-0.112 0.036,-0.113 0.041,-0.114 0.072,-0.225 0.036,-0.12 0.036,-0.112 0.036,-0.118 0.036,-0.113 0.036,-0.118 0.03,-0.119 0.037,-0.117 0.03,-0.119 0.032,-0.123 0.03,-0.118 0.031,-0.123 0.031,-0.119 0.03,-0.123 0.032,-0.123 0.025,-0.124 0.031,-0.123 0.026,-0.123 0.03,-0.124 0.026,-0.128 0.026,-0.124 0.052,-0.257 0.025,-0.123 0.026,-0.129 0.02,-0.128 0.026,-0.134 0.02,-0.128 0.026,-0.129 0.042,-0.261 0.082,-0.535 0.04,-0.267 0.037,-0.272 0.03,-0.272 0.037,-0.278 0.061,-0.555 0.031,-0.282 0.026,-0.283 0.051,-0.576 0.02,-0.288 0.021,-0.292 0.02,-0.298 0.021,-0.294 0.02,-0.298 0.016,-0.303 0.016,-0.303 0.015,-0.303 0.01,-0.303 0.01,-0.309 0.016,-0.313 0.01,-0.313 0.006,-0.314 0.01,-0.313 0.005,-0.319 0.01,-0.318 0.01,-0.648 V 1.818 h 8.006 v 38.25 z m -85.844,-52.717 -0.298,0.006 -0.298,0.005 -0.298,0.005 -0.303,0.005 -0.298,0.01 -0.606,0.021 -0.304,0.01 L 25.461,0.05 25.158,0.066 24.85,0.081 24.546,0.097 24.238,0.112 23.93,0.133 23.622,0.153 23.313,0.174 23.005,0.194 22.691,0.22 22.383,0.24 21.767,0.292 21.453,0.318 21.145,0.344 20.836,0.374 20.528,0.4 20.215,0.431 19.906,0.461 19.29,0.523 18.981,0.559 18.673,0.59 18.365,0.626 18.062,0.656 17.753,0.693 17.45,0.729 17.142,0.765 16.84,0.8 16.537,0.84 16.239,0.877 15.935,0.913 15.637,0.953 15.339,0.995 15.041,1.031 14.743,1.071 14.157,1.154 13.865,1.196 13.572,1.236 13.284,1.277 12.996,1.324 12.708,1.364 12.426,1.406 12.139,1.447 11.861,1.493 11.578,1.534 11.3,1.581 11.028,1.621 10.756,1.668 10.483,1.71 10.211,1.755 9.944,1.797 9.682,1.843 9.42,1.884 9.158,1.931 8.901,1.971 8.644,2.018 8.393,2.059 8.14,2.105 7.894,2.146 7.653,2.192 7.411,2.233 7.169,2.274 7.051,2.295 6.933,2.321 6.815,2.341 6.701,2.361 6.583,2.383 6.47,2.403 6.352,2.423 6.239,2.444 6.126,2.464 6.018,2.485 5.905,2.506 5.797,2.526 5.684,2.546 5.577,2.568 5.36,2.608 5.258,2.629 5.15,2.649 5.047,2.669 4.944,2.691 4.841,2.706 4.739,2.726 4.636,2.747 4.538,2.768 4.441,2.788 4.338,2.804 4.241,2.824 4.148,2.845 4.05,2.861 3.958,2.881 3.86,2.901 3.768,2.917 3.675,2.937 3.588,2.953 3.495,2.973 3.408,2.989 3.32,3.009 3.233,3.025 3.146,3.04 3.058,3.061 2.976,3.076 2.894,3.092 2.812,3.112 2.729,3.128 2.653,3.143 2.571,3.158 2.493,3.174 2.416,3.189 2.339,3.204 2.267,3.22 2.195,3.235 2.118,3.251 2.051,3.266 1.979,3.281 1.907,3.297 1.84,3.312 1.774,3.323 1.707,3.338 1.646,3.353 1.578,3.364 1.517,3.38 1.456,3.39 1.393,3.405 1.337,3.415 1.28,3.43 1.22,3.44 1.167,3.452 1.111,3.466 1.059,3.476 0.957,3.498 0.905,3.508 0.859,3.518 0.813,3.528 0.766,3.538 0.721,3.548 0.679,3.558 0.633,3.569 0.597,3.58 0.556,3.585 0.515,3.595 0.479,3.601 0.443,3.611 0.412,3.616 0.376,3.626 0.346,3.631 0.314,3.641 0.289,3.647 0.259,3.651 0.206,3.662 0.186,3.667 0.161,3.672 0.119,3.682 0.104,3.688 0.088,3.693 H 0.072 L 0.056,3.698 H 0.046 L 0.036,3.703 H 0.026 L 0.016,3.708 H 0 v 47.47 h 0.015 l 0.01,0.005 h 0.021 l 0.016,0.005 h 0.01 l 0.015,0.005 0.02,0.005 h 0.016 l 0.02,0.005 0.021,0.005 0.026,0.006 0.026,0.005 0.025,0.005 0.026,0.005 0.031,0.005 0.025,0.005 0.036,0.005 0.031,0.005 0.036,0.011 0.072,0.01 0.037,0.01 0.04,0.005 0.042,0.011 0.04,0.005 0.042,0.01 0.046,0.01 0.046,0.006 0.046,0.01 0.052,0.01 0.051,0.01 0.052,0.011 0.05,0.005 0.052,0.01 0.057,0.01 0.056,0.011 0.057,0.015 0.056,0.01 0.124,0.021 0.061,0.01 0.062,0.016 0.067,0.01 0.067,0.01 0.066,0.016 0.067,0.01 0.072,0.01 0.067,0.015 0.072,0.016 0.072,0.01 0.077,0.016 0.072,0.01 0.077,0.015 0.077,0.016 0.077,0.01 0.082,0.015 0.077,0.016 0.083,0.016 0.082,0.015 0.087,0.015 0.082,0.01 0.088,0.016 0.088,0.015 0.086,0.016 0.088,0.015 0.087,0.015 0.093,0.02 0.092,0.016 0.093,0.016 0.092,0.015 0.098,0.016 0.092,0.015 0.098,0.021 0.098,0.015 0.098,0.015 0.102,0.016 0.098,0.02 0.102,0.016 0.104,0.015 0.102,0.02 0.103,0.017 0.102,0.02 0.108,0.016 0.109,0.02 0.102,0.015 0.113,0.016 0.108,0.02 0.108,0.02 0.113,0.017 0.108,0.02 0.113,0.015 0.113,0.02 0.118,0.016 0.113,0.021 0.113,0.02 0.119,0.016 0.118,0.02 0.118,0.021 0.118,0.015 0.118,0.02 0.118,0.021 0.124,0.016 0.123,0.02 0.241,0.041 0.252,0.037 0.247,0.04 0.257,0.037 0.514,0.081 0.262,0.037 0.262,0.041 0.267,0.036 0.267,0.041 0.273,0.041 0.272,0.036 0.272,0.041 0.278,0.041 0.277,0.036 0.283,0.041 0.282,0.042 0.284,0.036 0.287,0.04 0.288,0.037 0.287,0.04 0.586,0.073 0.293,0.04 0.298,0.036 0.293,0.036 0.298,0.036 0.303,0.036 0.298,0.036 0.303,0.037 0.298,0.035 0.309,0.037 0.303,0.036 0.303,0.03 0.308,0.036 0.304,0.03 0.308,0.037 0.616,0.061 0.309,0.031 0.616,0.062 0.623,0.056 0.62,0.057 0.623,0.052 0.308,0.025 0.308,0.02 0.314,0.026 0.308,0.02 0.308,0.026 0.309,0.021 0.308,0.02 0.308,0.021 0.309,0.016 0.308,0.02 0.303,0.016 0.303,0.015 0.309,0.015 0.303,0.016 0.303,0.01 0.298,0.01 0.303,0.01 0.299,0.011 0.297,0.01 0.298,0.01 0.293,0.006 0.299,0.005 0.292,0.005 h 0.288 l 0.293,0.005 h 0.575 l 0.283,-0.005 h 0.293 l 0.863,-0.015 0.288,-0.01 0.287,-0.01 0.294,-0.006 0.287,-0.01 0.288,-0.016 0.288,-0.01 0.287,-0.016 0.293,-0.015 0.288,-0.015 0.576,-0.031 0.575,-0.041 0.283,-0.015 0.287,-0.021 0.288,-0.026 0.283,-0.02 0.288,-0.026 0.282,-0.02 0.283,-0.027 0.282,-0.025 0.283,-0.026 0.283,-0.026 0.283,-0.03 0.277,-0.026 0.277,-0.03 0.278,-0.027 0.277,-0.03 0.278,-0.031 0.277,-0.031 0.273,-0.03 0.272,-0.032 0.272,-0.036 0.267,-0.03 0.273,-0.037 0.267,-0.03 0.267,-0.037 0.262,-0.035 0.263,-0.031 0.786,-0.108 0.256,-0.036 0.252,-0.041 0.257,-0.036 0.504,-0.072 0.247,-0.041 0.246,-0.036 0.247,-0.036 0.241,-0.041 0.242,-0.036 0.241,-0.04 0.236,-0.037 0.237,-0.042 0.231,-0.035 0.231,-0.042 0.232,-0.035 0.226,-0.041 0.22,-0.037 0.227,-0.04 0.215,-0.036 0.216,-0.041 0.217,-0.036 0.215,-0.041 0.205,-0.037 0.211,-0.035 0.201,-0.041 0.205,-0.037 0.195,-0.036 0.201,-0.041 0.19,-0.036 0.19,-0.036 0.098,-0.015 0.092,-0.02 0.093,-0.016 0.092,-0.02 0.093,-0.016 0.087,-0.02 0.092,-0.016 0.088,-0.02 0.088,-0.016 0.086,-0.02 0.088,-0.016 0.087,-0.016 0.088,-0.02 0.082,-0.015 0.087,-0.015 0.082,-0.022 0.083,-0.014 0.077,-0.016 0.082,-0.016 0.083,-0.02 0.076,-0.016 0.077,-0.015 0.078,-0.015 0.076,-0.016 0.077,-0.015 0.072,-0.016 0.077,-0.015 0.073,-0.016 0.071,-0.015 0.072,-0.015 0.072,-0.016 0.067,-0.015 0.072,-0.016 0.067,-0.015 0.067,-0.015 0.066,-0.01 0.062,-0.016 0.067,-0.015 0.062,-0.01 0.061,-0.016 0.062,-0.016 0.062,-0.01 0.061,-0.016 0.057,-0.01 0.056,-0.015 0.057,-0.01 0.056,-0.015 0.057,-0.011 0.056,-0.01 0.052,-0.015 0.051,-0.011 0.051,-0.01 0.052,-0.01 0.046,-0.016 0.052,-0.01 0.046,-0.01 0.046,-0.01 0.041,-0.01 0.046,-0.012 0.041,-0.01 0.047,-0.01 0.041,-0.01 0.036,-0.005 0.04,-0.01 0.037,-0.01 0.041,-0.006 0.031,-0.01 0.036,-0.01 0.036,-0.006 0.03,-0.01 0.062,-0.01 0.031,-0.01 0.026,-0.005 0.03,-0.006 0.026,-0.01 0.026,-0.005 0.02,-0.006 0.027,-0.005 0.02,-0.005 0.02,-0.004 0.02,-0.006 0.016,-0.005 h 0.021 l 0.015,-0.005 0.016,-0.005 0.01,-0.006 h 0.016 l 0.01,-0.005 h 0.01 l 0.01,-0.005 h 0.011 l 0.005,-0.005 h 0.01 V 32.968 h -2.014 l -0.036,0.185 -0.04,0.19 -0.047,0.19 -0.042,0.19 -0.046,0.19 -0.051,0.196 -0.047,0.195 -0.051,0.195 -0.057,0.19 -0.056,0.2 -0.057,0.196 -0.056,0.195 -0.062,0.2 -0.067,0.2 -0.061,0.196 -0.067,0.2 -0.072,0.2 -0.144,0.402 -0.077,0.2 -0.072,0.206 -0.082,0.2 -0.082,0.2 -0.083,0.206 -0.082,0.2 -0.087,0.206 -0.093,0.2 -0.092,0.206 -0.093,0.2 -0.092,0.201 -0.098,0.205 -0.103,0.2 -0.102,0.206 -0.103,0.2 -0.108,0.2 -0.108,0.207 -0.113,0.2 -0.113,0.2 -0.113,0.201 -0.118,0.2 -0.118,0.2 -0.124,0.196 -0.123,0.2 -0.129,0.195 -0.128,0.2 -0.134,0.196 -0.133,0.196 -0.134,0.195 -0.139,0.195 -0.143,0.19 -0.144,0.196 -0.144,0.19 -0.15,0.19 -0.148,0.19 -0.154,0.19 -0.155,0.185 -0.318,0.37 -0.165,0.185 -0.164,0.185 -0.17,0.18 -0.082,0.087 -0.087,0.092 -0.087,0.088 -0.088,0.093 -0.087,0.087 -0.088,0.087 -0.086,0.087 -0.093,0.088 -0.087,0.087 -0.093,0.087 -0.092,0.088 -0.088,0.087 -0.098,0.082 -0.184,0.175 -0.093,0.082 -0.098,0.082 -0.097,0.088 -0.093,0.082 -0.098,0.083 -0.097,0.082 -0.103,0.082 -0.098,0.082 -0.097,0.077 -0.102,0.082 -0.104,0.082 -0.103,0.077 -0.102,0.083 -0.103,0.077 -0.103,0.077 -0.103,0.077 -0.108,0.077 -0.107,0.077 -0.103,0.078 -0.108,0.076 -0.108,0.073 -0.108,0.076 -0.113,0.073 -0.107,0.076 -0.114,0.073 -0.113,0.071 -0.108,0.072 -0.113,0.072 -0.118,0.072 -0.113,0.067 -0.113,0.072 -0.118,0.067 -0.118,0.071 -0.114,0.068 -0.118,0.066 -0.117,0.067 -0.124,0.066 -0.119,0.068 -0.123,0.067 -0.118,0.061 -0.123,0.067 -0.247,0.123 -0.123,0.062 -0.129,0.061 -0.123,0.062 -0.129,0.062 -0.128,0.057 -0.128,0.06 -0.129,0.057 -0.257,0.114 -0.133,0.056 -0.129,0.057 -0.134,0.056 -0.133,0.052 -0.134,0.051 -0.139,0.056 -0.133,0.052 -0.139,0.051 -0.133,0.051 -0.14,0.047 -0.138,0.05 -0.139,0.048 -0.138,0.051 -0.144,0.046 -0.139,0.046 -0.144,0.047 -0.144,0.04 -0.144,0.047 -0.144,0.041 -0.149,0.04 -0.143,0.048 -0.15,0.04 -0.143,0.037 -0.15,0.04 -0.148,0.037 -0.155,0.04 -0.149,0.036 -0.154,0.036 -0.149,0.037 -0.154,0.03 -0.154,0.036 -0.154,0.03 -0.154,0.037 -0.319,0.062 -0.154,0.025 -0.159,0.032 -0.16,0.025 -0.164,0.025 -0.16,0.026 -0.163,0.026 -0.16,0.026 -0.164,0.026 -0.165,0.02 -0.164,0.02 -0.17,0.02 -0.164,0.022 -0.17,0.02 -0.17,0.015 -0.17,0.016 -0.168,0.016 -0.17,0.015 -0.17,0.015 -0.174,0.016 -0.175,0.01 -0.35,0.02 -0.174,0.011 -0.18,0.01 -0.175,0.005 -0.18,0.005 -0.18,0.01 h -0.18 l -0.18,0.006 -0.184,0.005 h -0.612 l -0.241,-0.005 -0.242,-0.006 -0.241,-0.005 -0.242,-0.005 -0.236,-0.01 -0.237,-0.01 -0.462,-0.031 -0.231,-0.015 -0.232,-0.016 -0.452,-0.04 -0.226,-0.027 -0.22,-0.025 -0.226,-0.026 -0.217,-0.026 -0.22,-0.03 -0.432,-0.062 -0.216,-0.036 -0.421,-0.072 -0.211,-0.036 -0.206,-0.041 -0.205,-0.042 -0.206,-0.046 -0.2,-0.04 -0.206,-0.047 -0.2,-0.046 -0.195,-0.052 -0.2,-0.051 -0.196,-0.052 -0.195,-0.05 -0.19,-0.052 -0.19,-0.057 -0.19,-0.056 -0.19,-0.062 -0.186,-0.056 -0.19,-0.062 -0.18,-0.062 -0.185,-0.066 -0.18,-0.062 -0.18,-0.067 -0.18,-0.067 -0.18,-0.072 -0.174,-0.066 -0.174,-0.073 -0.17,-0.071 -0.175,-0.078 -0.17,-0.072 L 18.155,49.878 17.99,49.802 17.82,49.724 17.656,49.642 17.496,49.565 17.332,49.483 17.172,49.4 17.013,49.313 16.854,49.231 16.694,49.144 16.387,48.969 16.232,48.877 16.083,48.789 15.785,48.604 15.636,48.511 15.487,48.419 15.343,48.321 15.2,48.224 15.06,48.126 14.917,48.029 14.639,47.834 14.501,47.73 14.362,47.628 14.095,47.423 13.961,47.319 13.833,47.211 13.699,47.109 13.442,46.893 13.319,46.785 13.19,46.678 13.067,46.564 12.944,46.456 12.821,46.343 12.702,46.23 12.584,46.117 12.466,46.004 12.348,45.891 12.229,45.778 12.003,45.542 11.89,45.428 11.777,45.311 11.669,45.192 11.556,45.074 11.448,44.95 11.34,44.833 11.238,44.709 11.13,44.591 10.821,44.221 10.724,44.097 10.621,43.975 10.426,43.728 10.333,43.6 10.236,43.476 10.143,43.347 10.051,43.219 9.958,43.096 9.773,42.839 9.686,42.711 9.598,42.582 9.511,42.454 9.424,42.32 9.341,42.191 9.254,42.063 9.172,41.93 9.09,41.8 9.007,41.667 8.93,41.538 8.848,41.405 8.771,41.271 8.694,41.143 8.617,41.01 8.54,40.876 8.468,40.742 8.391,40.608 8.247,40.341 8.18,40.208 8.036,39.941 7.903,39.673 7.836,39.534 7.769,39.401 7.646,39.134 7.579,38.994 7.517,38.862 7.456,38.728 7.399,38.594 7.337,38.456 7.281,38.322 7.219,38.188 7.163,38.05 7.107,37.916 7.055,37.782 7,37.65 6.948,37.511 6.891,37.377 6.841,37.244 6.789,37.111 6.738,36.971 6.691,36.838 6.641,36.705 6.594,36.571 6.542,36.437 6.45,36.17 6.408,36.037 6.362,35.903 6.322,35.769 6.275,35.636 6.234,35.502 6.193,35.374 6.151,35.24 6.111,35.106 6.074,34.978 6.034,34.844 5.997,34.711 5.957,34.582 5.92,34.453 5.885,34.32 5.848,34.192 5.818,34.063 5.782,33.935 5.751,33.806 5.715,33.678 5.623,33.292 5.591,33.169 5.566,33.041 5.535,32.918 5.504,32.788 5.479,32.665 5.453,32.542 5.427,32.419 5.35,32.049 5.324,31.93 5.304,31.808 5.278,31.689 5.258,31.571 5.237,31.447 5.196,31.211 5.176,31.098 5.155,30.98 5.135,30.862 5.119,30.749 5.099,30.636 5.083,30.518 5.067,30.405 5.052,30.296 5.032,30.183 5.016,30.07 5.006,29.963 4.99,29.855 4.975,29.741 4.959,29.634 4.949,29.531 4.939,29.423 4.924,29.315 4.914,29.213 4.903,29.109 4.893,29.007 4.883,28.904 4.872,28.802 4.852,28.606 4.846,28.503 4.836,28.405 4.826,28.313 4.821,28.215 4.816,28.123 4.806,28.025 4.8,27.933 4.795,27.845 4.79,27.753 4.785,27.666 4.78,27.573 4.774,27.486 V 27.404 L 4.769,27.316 4.764,27.234 V 27.147 L 4.759,27.065 V 26.987 L 4.754,26.905 V 26.751 L 4.749,26.674 V 26.212 L 4.754,26.134 V 25.97 L 4.759,25.883 V 25.8 l 0.005,-0.087 v -0.087 l 0.005,-0.088 0.005,-0.087 v -0.088 l 0.006,-0.092 0.005,-0.087 0.01,-0.185 0.01,-0.097 0.005,-0.093 0.006,-0.093 0.01,-0.098 0.005,-0.097 0.01,-0.098 0.005,-0.098 0.02,-0.194 0.011,-0.103 0.01,-0.103 0.01,-0.097 0.011,-0.104 0.02,-0.205 0.016,-0.108 0.01,-0.103 0.016,-0.108 0.015,-0.103 0.01,-0.108 0.016,-0.107 0.015,-0.108 0.016,-0.108 0.015,-0.113 0.02,-0.108 0.016,-0.113 0.015,-0.108 0.021,-0.113 0.02,-0.113 0.016,-0.113 0.02,-0.113 0.021,-0.113 0.02,-0.113 0.026,-0.113 0.02,-0.118 L 5.293,21.202 5.319,21.084 5.345,20.97 5.365,20.852 5.391,20.734 5.417,20.616 5.468,20.379 5.525,20.143 5.582,19.901 5.642,19.66 5.705,19.418 5.771,19.177 5.838,18.931 5.91,18.683 5.946,18.561 5.987,18.437 6.023,18.313 6.059,18.19 6.1,18.067 6.182,17.82 6.223,17.692 6.265,17.568 6.305,17.445 6.352,17.322 6.393,17.194 6.439,17.07 6.486,16.941 6.532,16.819 6.578,16.695 6.629,16.566 6.676,16.444 6.727,16.315 6.773,16.191 6.825,16.063 6.876,15.94 6.933,15.811 6.984,15.688 7.041,15.559 7.091,15.436 7.149,15.307 7.205,15.185 7.261,15.056 7.323,14.933 7.38,14.803 7.441,14.681 7.503,14.552 7.626,14.306 7.688,14.177 7.755,14.054 7.816,13.93 7.883,13.802 7.95,13.679 8.022,13.555 8.089,13.432 8.156,13.304 8.371,12.934 8.443,12.81 8.52,12.687 8.592,12.563 8.67,12.44 8.746,12.322 8.824,12.199 8.906,12.076 8.983,11.957 9.147,11.711 9.23,11.593 l 0.082,-0.118 0.082,-0.124 0.175,-0.236 0.087,-0.118 0.087,-0.118 0.093,-0.12 0.088,-0.117 0.092,-0.119 0.093,-0.118 0.092,-0.113 0.097,-0.118 0.093,-0.112 0.097,-0.12 L 10.586,9.83 10.684,9.717 10.786,9.604 10.884,9.491 10.987,9.378 11.09,9.265 11.192,9.152 11.3,9.044 11.408,8.931 11.511,8.823 11.84,8.493 11.953,8.386 12.066,8.284 12.179,8.175 12.297,8.073 12.41,7.965 12.528,7.862 12.647,7.759 12.765,7.656 12.889,7.553 13.011,7.451 13.135,7.348 13.259,7.251 13.381,7.153 13.51,7.05 13.767,6.855 13.896,6.762 14.029,6.664 14.157,6.572 14.291,6.474 14.43,6.382 14.563,6.289 14.702,6.197 14.841,6.109 14.979,6.017 15.123,5.93 15.263,5.843 15.406,5.755 15.555,5.668 15.699,5.58 15.848,5.498 15.997,5.416 16.146,5.334 16.295,5.252 16.449,5.17 16.603,5.087 16.757,5.01 l 0.155,-0.077 0.159,-0.077 0.16,-0.077 0.158,-0.077 0.165,-0.072 0.16,-0.072 0.164,-0.072 0.17,-0.072 0.164,-0.067 0.17,-0.072 0.169,-0.067 0.17,-0.066 0.175,-0.067 0.174,-0.062 0.174,-0.062 0.175,-0.061 0.18,-0.062 0.175,-0.061 0.185,-0.057 0.18,-0.061 0.185,-0.052 0.185,-0.056 0.185,-0.057 0.185,-0.052 0.19,-0.05 0.19,-0.052 0.195,-0.047 0.19,-0.051 0.195,-0.046 0.196,-0.04 0.2,-0.048 0.2,-0.04 0.2,-0.041 0.201,-0.041 0.206,-0.042 0.205,-0.036 0.206,-0.036 0.206,-0.035 0.21,-0.032 0.211,-0.03 0.216,-0.031 0.21,-0.03 0.216,-0.027 0.221,-0.026 0.216,-0.025 0.22,-0.026 0.222,-0.02 0.226,-0.021 0.22,-0.02 0.227,-0.016 0.231,-0.015 0.226,-0.015 0.231,-0.016 0.237,-0.01 0.231,-0.011 0.236,-0.01 0.237,-0.005 0.242,-0.006 0.24,-0.005 h 0.242 l 0.242,-0.004 0.196,0.004 h 0.385 l 0.195,0.005 0.19,0.006 0.19,0.005 0.19,0.005 0.186,0.005 0.19,0.01 0.185,0.01 0.185,0.011 0.184,0.01 0.185,0.011 0.18,0.01 0.18,0.016 0.185,0.015 0.175,0.015 0.18,0.016 0.18,0.015 0.175,0.02 0.174,0.016 0.174,0.02 0.175,0.02 0.175,0.021 0.17,0.021 0.174,0.026 0.17,0.02 0.17,0.026 0.169,0.026 0.165,0.025 0.169,0.026 0.164,0.031 0.165,0.026 0.164,0.03 0.16,0.032 0.164,0.03 0.318,0.062 0.16,0.036 0.159,0.031 0.16,0.036 0.154,0.036 0.159,0.035 0.308,0.073 0.154,0.04 0.15,0.036 0.153,0.042 0.15,0.04 0.297,0.083 0.15,0.041 0.143,0.047 0.15,0.04 0.143,0.047 0.144,0.046 0.144,0.046 0.144,0.047 0.139,0.046 0.144,0.046 0.138,0.052 0.139,0.045 0.139,0.052 0.138,0.046 0.134,0.051 0.139,0.052 0.133,0.056 0.134,0.052 0.134,0.051 0.133,0.057 0.134,0.051 0.128,0.057 0.386,0.17 0.128,0.056 0.129,0.056 0.123,0.057 0.128,0.062 0.124,0.056 0.123,0.061 0.123,0.063 0.119,0.06 0.123,0.063 0.119,0.062 0.122,0.061 0.119,0.061 0.118,0.067 0.113,0.062 0.118,0.067 0.113,0.061 0.119,0.068 0.112,0.067 0.227,0.133 0.112,0.066 0.108,0.067 0.108,0.067 0.113,0.072 0.109,0.067 0.107,0.067 0.108,0.071 0.103,0.073 0.108,0.066 0.102,0.073 0.103,0.071 0.103,0.073 0.103,0.071 0.103,0.072 0.102,0.072 0.098,0.077 0.098,0.072 0.103,0.072 0.097,0.077 0.098,0.072 0.092,0.077 0.098,0.077 0.092,0.072 0.098,0.077 0.092,0.078 0.093,0.077 0.185,0.154 0.087,0.076 0.093,0.077 0.087,0.078 0.087,0.077 0.088,0.082 0.088,0.077 0.086,0.077 0.088,0.082 0.082,0.078 0.087,0.081 0.083,0.083 0.082,0.077 0.082,0.083 0.082,0.082 0.082,0.076 0.16,0.165 0.154,0.165 0.154,0.164 0.298,0.329 0.15,0.164 0.143,0.17 0.139,0.164 0.139,0.17 0.133,0.17 0.134,0.163 0.128,0.17 0.129,0.17 0.123,0.17 0.123,0.169 0.124,0.17 0.118,0.17 0.113,0.174 0.113,0.17 0.108,0.17 0.108,0.169 0.108,0.17 0.103,0.168 0.097,0.17 0.103,0.17 0.092,0.17 0.278,0.508 0.082,0.165 0.087,0.169 0.083,0.17 0.082,0.164 0.077,0.165 0.072,0.164 0.077,0.164 0.072,0.165 0.067,0.164 0.066,0.16 0.067,0.164 0.124,0.318 0.056,0.16 0.062,0.159 0.051,0.154 0.052,0.154 0.051,0.155 0.051,0.154 0.047,0.149 0.046,0.154 0.041,0.149 0.041,0.144 0.041,0.149 0.036,0.144 0.036,0.144 0.037,0.138 0.03,0.14 0.03,0.138 0.027,0.139 h 1.952 V 3.617 H 54.639 L 54.633,3.611 h -0.005 l -0.01,-0.005 h -0.01 L 54.598,3.601 H 54.582 L 54.572,3.596 54.556,3.591 54.536,3.586 54.52,3.581 H 54.505 L 54.485,3.576 54.464,3.565 54.444,3.56 54.392,3.55 54.372,3.544 54.341,3.534 54.289,3.524 54.227,3.504 54.197,3.499 54.161,3.489 54.13,3.483 54.094,3.473 54.058,3.463 54.022,3.453 53.981,3.442 53.945,3.432 53.863,3.412 53.822,3.401 53.775,3.391 53.735,3.381 53.688,3.371 53.642,3.354 53.59,3.344 53.544,3.334 53.493,3.319 53.446,3.308 53.396,3.298 53.339,3.282 53.288,3.267 53.231,3.257 53.179,3.241 53.123,3.231 53.067,3.216 53.005,3.2 52.948,3.185 52.887,3.17 52.825,3.159 52.763,3.144 52.702,3.129 52.64,3.113 52.573,3.097 52.506,3.082 52.439,3.067 52.372,3.051 52.306,3.031 52.234,3.016 52.166,3 52.094,2.985 52.022,2.969 51.951,2.949 51.873,2.933 51.801,2.918 51.725,2.898 51.647,2.882 51.57,2.862 51.493,2.846 51.416,2.83 51.339,2.81 51.256,2.79 51.174,2.774 51.092,2.754 51.01,2.738 50.928,2.718 50.84,2.698 50.758,2.681 50.671,2.661 50.583,2.64 50.496,2.625 50.409,2.605 50.316,2.584 50.229,2.563 50.136,2.543 50.049,2.528 49.956,2.507 49.864,2.487 49.766,2.466 49.674,2.446 49.576,2.425 49.484,2.404 49.386,2.384 49.191,2.343 48.59,2.219 48.384,2.178 48.174,2.136 47.963,2.096 47.747,2.049 47.531,2.008 47.31,1.968 47.09,1.926 46.863,1.88 46.637,1.839 46.411,1.798 46.181,1.751 45.944,1.711 45.712,1.669 45.47,1.623 45.234,1.582 44.993,1.541 44.746,1.5 44.499,1.454 44.253,1.412 43.498,1.289 43.24,1.248 42.726,1.165 42.464,1.125 42.202,1.089 41.94,1.048 41.673,1.006 41.406,0.97 41.139,0.929 40.866,0.893 40.594,0.857 40.322,0.817 40.049,0.78 39.772,0.744 39.499,0.708 39.222,0.678 38.939,0.642 38.662,0.605 37.532,0.482 37.244,0.452 36.96,0.42 36.672,0.39 36.385,0.364 36.097,0.333 35.809,0.308 35.516,0.281 35.228,0.261 34.935,0.235 34.643,0.21 34.355,0.19 34.062,0.169 33.476,0.128 33.184,0.112 32.885,0.092 32.592,0.076 32.3,0.06 32.002,0.05 31.709,0.034 31.417,0.024 31.119,0.014 30.826,0.003 l -0.293,-0.01 -0.298,-0.005 -0.586,-0.01 -0.298,-0.006 z m 132.605,38.776 -0.005,0.175 -0.006,0.175 -0.01,0.17 -0.01,0.169 -0.01,0.174 -0.01,0.164 -0.031,0.34 -0.021,0.164 -0.041,0.329 -0.02,0.16 -0.026,0.163 -0.026,0.16 -0.03,0.16 -0.027,0.154 -0.036,0.159 -0.03,0.154 -0.072,0.308 -0.036,0.15 -0.041,0.149 -0.042,0.154 -0.04,0.143 -0.047,0.15 -0.046,0.143 -0.046,0.144 -0.052,0.144 -0.051,0.144 -0.052,0.139 -0.056,0.138 -0.052,0.14 -0.061,0.138 -0.057,0.133 -0.061,0.14 -0.062,0.132 -0.062,0.129 -0.066,0.134 -0.067,0.128 -0.072,0.128 -0.067,0.124 -0.072,0.128 -0.072,0.124 -0.154,0.246 -0.077,0.119 -0.082,0.118 -0.077,0.118 -0.088,0.118 -0.082,0.114 -0.087,0.112 -0.088,0.113 -0.087,0.114 -0.092,0.108 -0.088,0.108 -0.098,0.107 -0.092,0.108 -0.293,0.308 -0.103,0.098 -0.102,0.103 -0.103,0.093 -0.216,0.194 -0.108,0.093 -0.108,0.093 -0.113,0.087 -0.113,0.092 -0.113,0.087 -0.118,0.083 -0.118,0.087 -0.119,0.083 -0.118,0.082 -0.123,0.082 -0.247,0.154 -0.128,0.077 -0.129,0.072 -0.128,0.077 -0.129,0.072 -0.133,0.067 -0.134,0.072 -0.267,0.133 -0.139,0.062 -0.138,0.062 -0.144,0.061 -0.139,0.062 -0.144,0.057 -0.144,0.056 -0.149,0.057 -0.149,0.05 -0.144,0.058 -0.154,0.046 -0.149,0.051 -0.308,0.093 -0.154,0.046 -0.319,0.082 -0.16,0.042 -0.159,0.035 -0.164,0.041 -0.164,0.031 -0.165,0.036 -0.17,0.031 -0.164,0.03 -0.17,0.032 -0.174,0.026 -0.17,0.025 -0.174,0.026 -0.35,0.04 -0.18,0.021 -0.18,0.016 -0.18,0.016 -0.18,0.014 -0.179,0.011 -0.185,0.01 -0.185,0.01 -0.19,0.01 -0.185,0.006 -0.19,0.005 h -19.239 v -22.8 l 18.36,-0.025 h 0.39 l 0.19,0.005 h 0.196 l 0.57,0.016 0.185,0.01 0.185,0.01 0.185,0.01 0.185,0.01 0.18,0.01 0.185,0.011 0.18,0.015 0.175,0.016 0.18,0.016 0.174,0.02 0.175,0.015 0.17,0.02 0.174,0.021 0.17,0.02 0.17,0.026 0.169,0.027 0.164,0.02 0.165,0.03 0.164,0.026 0.165,0.031 0.159,0.026 0.16,0.036 0.159,0.03 0.154,0.031 0.159,0.036 0.154,0.037 0.15,0.035 0.153,0.041 0.15,0.041 0.148,0.041 0.144,0.042 0.15,0.04 0.143,0.047 0.144,0.046 0.139,0.047 0.139,0.051 0.138,0.051 0.139,0.052 0.139,0.051 0.133,0.052 0.129,0.056 0.133,0.057 0.129,0.056 0.257,0.123 0.123,0.062 0.129,0.062 0.118,0.066 0.123,0.067 0.118,0.067 0.118,0.067 0.119,0.072 0.113,0.072 0.113,0.072 0.113,0.077 0.113,0.077 0.108,0.077 0.108,0.077 0.102,0.083 0.103,0.082 0.103,0.082 0.103,0.087 0.102,0.082 0.098,0.093 0.093,0.087 0.097,0.092 0.093,0.093 0.092,0.093 0.088,0.097 0.092,0.098 0.087,0.097 0.083,0.098 0.082,0.103 0.082,0.103 0.082,0.108 0.077,0.102 0.077,0.114 0.077,0.108 0.078,0.112 0.072,0.113 0.066,0.114 0.072,0.117 0.067,0.113 0.067,0.124 0.062,0.119 0.061,0.122 0.062,0.124 0.061,0.128 0.057,0.129 0.057,0.128 0.051,0.134 0.051,0.134 0.103,0.266 0.046,0.14 0.047,0.143 0.04,0.14 0.042,0.143 0.04,0.144 0.042,0.149 0.036,0.149 0.036,0.149 0.062,0.308 0.03,0.155 0.026,0.158 0.03,0.16 0.021,0.159 0.026,0.165 0.02,0.164 0.021,0.164 0.016,0.17 0.015,0.17 0.016,0.174 0.01,0.175 0.01,0.175 0.005,0.18 0.01,0.18 0.006,0.18 z M 129.002,4.099 h 14.373 l 0.246,0.006 0.242,0.005 0.246,0.006 0.237,0.01 0.236,0.01 0.236,0.01 0.232,0.01 0.23,0.016 0.232,0.01 0.221,0.02 0.226,0.016 0.221,0.02 0.432,0.042 0.216,0.02 0.421,0.052 0.206,0.025 0.205,0.031 0.206,0.03 0.2,0.032 0.39,0.061 0.196,0.036 0.19,0.037 0.19,0.04 0.185,0.036 0.37,0.083 0.18,0.04 0.18,0.047 0.174,0.046 0.175,0.047 0.17,0.046 0.17,0.046 0.169,0.051 0.164,0.052 0.165,0.051 0.318,0.113 0.154,0.057 0.309,0.113 0.149,0.061 0.149,0.062 0.149,0.062 0.144,0.062 0.138,0.067 0.278,0.133 0.139,0.066 0.133,0.073 0.129,0.067 0.133,0.071 0.124,0.078 0.128,0.071 0.123,0.078 0.119,0.071 0.123,0.083 0.118,0.076 0.113,0.078 0.113,0.082 0.113,0.083 0.108,0.082 0.108,0.087 0.108,0.082 0.103,0.088 0.103,0.087 0.097,0.087 0.098,0.092 0.097,0.088 0.093,0.092 0.092,0.093 0.093,0.092 0.087,0.098 0.088,0.097 0.082,0.093 0.087,0.103 0.077,0.098 0.083,0.097 0.077,0.103 0.072,0.103 0.077,0.103 0.072,0.103 0.066,0.107 0.072,0.103 0.062,0.108 0.067,0.108 0.061,0.108 0.062,0.113 0.062,0.108 0.056,0.112 0.052,0.114 0.056,0.113 0.052,0.118 0.05,0.113 0.047,0.118 0.046,0.119 0.047,0.117 0.046,0.12 0.041,0.122 0.036,0.119 0.041,0.123 0.036,0.123 0.036,0.123 0.03,0.124 0.063,0.257 0.025,0.123 0.031,0.129 0.02,0.133 0.026,0.129 0.02,0.128 0.021,0.133 0.021,0.134 0.015,0.134 0.016,0.134 0.01,0.133 0.015,0.139 0.01,0.133 0.006,0.139 0.01,0.139 0.005,0.138 v 0.144 l 0.005,0.14 v 0.42 l -0.005,0.134 -0.01,0.277 -0.005,0.134 -0.005,0.134 -0.01,0.138 -0.006,0.134 -0.01,0.134 -0.015,0.133 -0.01,0.134 -0.016,0.128 -0.015,0.134 -0.016,0.129 -0.015,0.128 -0.02,0.134 -0.042,0.257 -0.02,0.123 -0.026,0.128 -0.02,0.123 -0.026,0.129 -0.031,0.123 -0.026,0.124 -0.062,0.246 -0.03,0.119 -0.031,0.123 -0.072,0.236 -0.036,0.118 -0.082,0.236 -0.042,0.12 -0.04,0.112 -0.042,0.113 -0.046,0.113 -0.046,0.113 -0.052,0.113 -0.046,0.113 -0.051,0.108 -0.052,0.108 -0.056,0.108 -0.052,0.108 -0.056,0.108 -0.062,0.102 -0.056,0.108 -0.124,0.206 -0.061,0.103 -0.067,0.097 -0.067,0.103 -0.067,0.098 -0.144,0.195 -0.071,0.092 -0.072,0.098 -0.077,0.092 -0.078,0.093 -0.077,0.093 -0.082,0.087 -0.082,0.092 -0.082,0.087 -0.088,0.088 -0.087,0.087 -0.087,0.082 -0.088,0.088 -0.092,0.082 -0.093,0.082 -0.097,0.078 -0.093,0.081 -0.103,0.078 -0.097,0.077 -0.103,0.077 -0.103,0.072 -0.102,0.077 -0.108,0.072 -0.108,0.072 -0.108,0.066 -0.113,0.067 -0.113,0.073 -0.113,0.06 -0.119,0.068 -0.118,0.067 -0.123,0.062 -0.118,0.06 -0.129,0.057 -0.123,0.062 -0.128,0.057 -0.129,0.056 -0.134,0.052 -0.128,0.056 -0.139,0.052 -0.133,0.046 -0.14,0.05 -0.138,0.047 -0.144,0.047 -0.144,0.046 -0.149,0.046 -0.144,0.041 -0.149,0.042 -0.154,0.035 -0.154,0.041 -0.154,0.037 -0.16,0.036 -0.159,0.03 -0.159,0.036 -0.164,0.03 -0.165,0.026 -0.164,0.032 -0.17,0.025 -0.174,0.02 -0.17,0.026 -0.175,0.02 -0.18,0.021 -0.18,0.02 -0.18,0.017 -0.184,0.015 -0.185,0.015 -0.185,0.01 -0.19,0.01 -0.19,0.011 -0.196,0.006 -0.195,0.004 -0.2,0.005 -0.196,0.006 h -0.205 v -0.015 h -17.348 z m 41.848,34.26 -0.005,-0.176 -0.005,-0.17 -0.01,-0.169 -0.016,-0.17 -0.01,-0.169 -0.02,-0.17 -0.016,-0.163 -0.02,-0.17 -0.026,-0.165 -0.02,-0.164 -0.032,-0.164 -0.025,-0.16 -0.031,-0.164 -0.108,-0.478 -0.041,-0.16 -0.041,-0.158 -0.041,-0.155 -0.047,-0.154 -0.051,-0.154 -0.046,-0.154 -0.052,-0.154 -0.056,-0.15 -0.113,-0.297 -0.062,-0.15 -0.062,-0.148 -0.061,-0.145 -0.067,-0.149 -0.067,-0.144 -0.072,-0.138 -0.067,-0.144 -0.077,-0.144 -0.072,-0.138 -0.077,-0.14 -0.082,-0.133 -0.082,-0.138 -0.082,-0.135 -0.083,-0.133 -0.087,-0.134 -0.087,-0.133 -0.093,-0.128 -0.092,-0.134 -0.093,-0.128 -0.097,-0.124 -0.098,-0.128 -0.098,-0.124 -0.205,-0.247 -0.108,-0.117 -0.103,-0.124 -0.108,-0.118 -0.113,-0.113 -0.113,-0.118 -0.226,-0.227 -0.236,-0.225 -0.247,-0.216 -0.123,-0.108 -0.124,-0.103 -0.385,-0.309 -0.134,-0.097 -0.133,-0.098 -0.139,-0.097 -0.134,-0.098 -0.138,-0.092 -0.144,-0.093 -0.139,-0.093 -0.144,-0.087 -0.149,-0.087 -0.144,-0.088 -0.149,-0.086 -0.149,-0.083 -0.154,-0.082 -0.154,-0.083 -0.154,-0.076 -0.154,-0.078 -0.319,-0.154 -0.16,-0.071 -0.164,-0.073 -0.159,-0.067 -0.17,-0.071 -0.164,-0.067 -0.17,-0.061 -0.17,-0.067 -0.169,-0.062 -0.17,-0.057 -0.174,-0.062 -0.175,-0.056 -0.18,-0.057 -0.174,-0.05 -0.18,-0.052 -0.185,-0.051 -0.18,-0.047 -0.185,-0.046 -0.185,-0.047 -0.185,-0.046 -0.19,-0.041 -0.185,-0.035 -0.19,-0.042 -0.195,-0.035 -0.19,-0.037 -0.196,-0.03 -0.39,-0.062 -0.2,-0.026 -0.201,-0.025 -0.2,-0.02 -0.2,-0.027 -0.206,-0.02 -0.2,-0.016 -0.206,-0.015 -0.211,-0.016 -0.206,-0.015 -0.21,-0.01 -0.211,-0.005 -0.21,-0.011 -0.211,-0.005 h -0.432 l 0.15,-0.036 0.148,-0.04 0.15,-0.037 0.148,-0.04 0.15,-0.042 0.143,-0.042 0.149,-0.04 0.144,-0.042 0.144,-0.046 0.144,-0.046 0.149,-0.046 0.138,-0.046 0.144,-0.052 0.144,-0.046 0.144,-0.051 0.139,-0.052 0.139,-0.051 0.143,-0.057 0.14,-0.05 0.138,-0.058 0.134,-0.056 0.138,-0.056 0.139,-0.063 0.134,-0.056 0.668,-0.308 0.128,-0.067 0.134,-0.067 0.385,-0.2 0.123,-0.067 0.129,-0.072 0.123,-0.072 0.129,-0.072 0.123,-0.072 0.118,-0.072 0.123,-0.077 0.124,-0.072 0.118,-0.077 0.118,-0.077 0.118,-0.077 0.119,-0.082 0.113,-0.078 0.118,-0.082 0.113,-0.076 0.113,-0.083 0.113,-0.082 0.108,-0.088 0.113,-0.082 0.108,-0.087 0.108,-0.082 0.108,-0.088 0.102,-0.087 0.108,-0.087 0.103,-0.092 0.103,-0.088 0.098,-0.093 0.102,-0.087 0.195,-0.185 0.19,-0.19 0.098,-0.093 0.185,-0.195 0.088,-0.097 0.092,-0.098 0.175,-0.196 0.082,-0.102 0.087,-0.097 0.083,-0.103 0.082,-0.103 0.082,-0.103 0.077,-0.103 0.077,-0.102 0.077,-0.108 0.072,-0.103 0.077,-0.108 0.072,-0.108 0.072,-0.103 0.067,-0.107 0.067,-0.114 0.133,-0.215 0.067,-0.114 0.062,-0.108 0.061,-0.112 0.057,-0.113 0.057,-0.114 0.056,-0.113 0.056,-0.113 0.052,-0.118 0.056,-0.113 0.047,-0.118 0.051,-0.113 0.046,-0.118 0.047,-0.119 0.04,-0.118 0.047,-0.118 0.041,-0.118 0.036,-0.123 0.041,-0.119 0.036,-0.123 0.03,-0.118 0.037,-0.124 0.03,-0.123 0.026,-0.123 0.031,-0.124 0.052,-0.246 0.02,-0.123 0.02,-0.129 0.021,-0.124 0.016,-0.128 0.015,-0.128 0.016,-0.124 0.02,-0.257 0.01,-0.128 0.006,-0.134 0.005,-0.128 v -0.612 l -0.005,-0.117 v -0.113 l -0.006,-0.12 -0.005,-0.112 -0.005,-0.113 -0.01,-0.113 -0.005,-0.113 -0.01,-0.113 -0.006,-0.108 -0.01,-0.113 -0.02,-0.216 -0.016,-0.108 -0.01,-0.108 -0.016,-0.108 -0.01,-0.108 -0.015,-0.103 -0.016,-0.107 -0.015,-0.103 -0.02,-0.102 -0.016,-0.103 -0.02,-0.104 -0.016,-0.102 -0.02,-0.097 -0.021,-0.103 -0.02,-0.098 -0.021,-0.103 -0.026,-0.098 -0.02,-0.097 -0.026,-0.097 -0.026,-0.093 -0.026,-0.098 -0.025,-0.092 -0.026,-0.098 -0.026,-0.092 -0.03,-0.093 -0.026,-0.093 -0.031,-0.092 L 166.4,9.968 166.37,9.88 166.338,9.788 166.303,9.701 166.272,9.614 166.2,9.439 166.164,9.351 166.128,9.264 166.092,9.182 166.056,9.094 166.015,9.013 165.979,8.93 165.938,8.848 165.897,8.765 165.861,8.683 165.814,8.601 165.774,8.519 165.732,8.442 165.692,8.359 165.645,8.283 165.599,8.206 165.557,8.128 165.511,8.052 165.465,7.974 165.419,7.898 165.367,7.825 165.321,7.749 165.275,7.676 165.223,7.599 165.173,7.527 165.121,7.456 165.069,7.384 164.967,7.24 164.915,7.173 164.859,7.101 164.807,7.034 164.751,6.962 164.694,6.896 164.643,6.829 164.586,6.761 164.525,6.695 164.468,6.628 164.412,6.566 164.35,6.499 164.293,6.438 164.232,6.371 164.17,6.309 164.114,6.248 163.99,6.125 163.923,6.063 163.862,6.001 163.8,5.944 163.733,5.883 163.672,5.827 163.605,5.765 163.471,5.652 163.404,5.595 163.271,5.482 163.199,5.425 163.132,5.375 163.06,5.317 162.921,5.21 l -0.143,-0.103 -0.144,-0.103 -0.15,-0.103 -0.148,-0.097 -0.15,-0.098 -0.154,-0.097 -0.308,-0.186 -0.16,-0.087 -0.158,-0.087 -0.165,-0.088 -0.164,-0.082 -0.165,-0.082 -0.17,-0.082 -0.169,-0.077 -0.17,-0.077 -0.174,-0.077 -0.175,-0.072 -0.175,-0.072 -0.18,-0.072 -0.18,-0.067 -0.18,-0.067 -0.184,-0.067 -0.185,-0.061 -0.185,-0.062 -0.19,-0.061 -0.19,-0.057 -0.38,-0.113 -0.196,-0.052 -0.195,-0.056 -0.195,-0.046 -0.2,-0.052 -0.201,-0.046 -0.2,-0.046 -0.206,-0.046 -0.2,-0.041 L 156.226,2.487 156.02,2.446 155.81,2.404 155.6,2.368 155.388,2.332 155.178,2.297 154.967,2.265 154.751,2.23 154.535,2.198 154.32,2.173 154.104,2.143 153.883,2.117 153.662,2.09 153.441,2.065 153.22,2.045 152.999,2.019 152.773,1.998 152.547,1.983 152.321,1.962 152.095,1.947 151.863,1.932 151.637,1.916 151.407,1.9 151.175,1.89 150.944,1.875 150.712,1.865 150.476,1.86 150.245,1.849 150.008,1.839 149.772,1.834 149.536,1.828 149.299,1.824 h -0.241 L 148.821,1.818 H 120.503 V 52.69 h 31.494 l 0.18,-0.006 h 0.914 l 0.185,-0.005 h 0.19 l 0.19,-0.004 h 0.19 l 0.19,-0.006 0.191,-0.005 0.781,-0.02 0.195,-0.01 0.2,-0.006 0.196,-0.01 0.2,-0.01 0.2,-0.011 0.201,-0.015 0.2,-0.01 0.201,-0.016 0.2,-0.015 0.2,-0.015 0.206,-0.016 0.2,-0.021 0.206,-0.02 0.2,-0.021 0.206,-0.02 0.2,-0.026 0.206,-0.026 0.2,-0.025 0.206,-0.032 0.2,-0.025 0.201,-0.036 0.206,-0.031 0.2,-0.036 0.206,-0.035 0.2,-0.036 0.2,-0.042 0.2,-0.041 0.201,-0.041 0.4,-0.092 0.196,-0.052 0.2,-0.052 0.196,-0.05 0.586,-0.17 0.195,-0.062 0.19,-0.066 0.195,-0.067 0.19,-0.067 0.19,-0.072 0.185,-0.072 0.19,-0.078 0.186,-0.076 0.185,-0.082 0.185,-0.083 0.087,-0.041 0.092,-0.046 0.093,-0.041 0.087,-0.046 0.093,-0.046 0.087,-0.042 0.088,-0.051 0.087,-0.047 0.092,-0.045 0.088,-0.052 0.087,-0.047 0.087,-0.051 0.083,-0.05 0.087,-0.053 0.087,-0.05 0.083,-0.053 0.087,-0.056 0.082,-0.051 0.087,-0.056 0.083,-0.057 0.082,-0.057 0.082,-0.056 0.082,-0.057 0.082,-0.062 0.083,-0.061 0.077,-0.056 0.082,-0.062 0.077,-0.062 0.082,-0.062 0.077,-0.067 0.077,-0.061 0.078,-0.067 0.077,-0.066 0.154,-0.134 0.072,-0.067 0.077,-0.072 0.072,-0.072 0.072,-0.067 0.077,-0.072 0.072,-0.077 0.072,-0.072 0.066,-0.072 0.072,-0.077 0.072,-0.077 0.067,-0.077 0.072,-0.077 0.067,-0.077 0.067,-0.083 0.066,-0.076 0.067,-0.082 0.062,-0.083 0.067,-0.087 0.061,-0.082 0.067,-0.087 0.062,-0.083 0.061,-0.087 0.062,-0.087 0.062,-0.093 0.062,-0.088 0.113,-0.184 0.061,-0.093 0.057,-0.093 0.056,-0.092 0.057,-0.098 0.051,-0.097 0.057,-0.098 0.051,-0.097 0.051,-0.098 0.057,-0.103 0.051,-0.097 0.047,-0.103 0.051,-0.108 0.046,-0.103 0.052,-0.108 0.046,-0.103 0.046,-0.108 0.046,-0.108 0.047,-0.112 0.04,-0.108 0.042,-0.113 0.046,-0.114 0.041,-0.113 0.041,-0.118 0.036,-0.113 0.041,-0.118 0.072,-0.236 0.036,-0.123 0.036,-0.12 0.072,-0.245 0.031,-0.129 0.03,-0.124 0.062,-0.257 0.026,-0.128 0.031,-0.133 0.026,-0.129 0.025,-0.133 0.052,-0.268 0.02,-0.138 0.026,-0.14 0.02,-0.138 0.021,-0.139 0.02,-0.138 0.016,-0.144 0.02,-0.144 0.016,-0.144 0.015,-0.144 0.01,-0.149 0.016,-0.149 0.01,-0.149 0.016,-0.15 0.01,-0.153 0.005,-0.154 0.01,-0.155 0.006,-0.154 0.01,-0.159 V 39.35 l 0.005,-0.16 0.005,-0.164 v -0.498 z m -78.886,25.491 0.098,0.005 h 0.097 l 0.098,0.006 0.092,0.005 0.098,0.005 0.092,0.004 0.098,0.006 0.277,0.03 0.093,0.01 0.087,0.011 0.093,0.015 0.087,0.016 0.093,0.016 0.087,0.015 0.088,0.016 0.087,0.02 0.087,0.016 0.087,0.02 0.083,0.02 0.087,0.026 0.083,0.02 0.087,0.026 0.082,0.026 0.082,0.026 0.082,0.026 0.083,0.025 0.077,0.031 0.082,0.031 0.077,0.03 0.082,0.032 0.078,0.03 0.154,0.072 0.076,0.036 0.077,0.036 0.078,0.036 0.144,0.083 0.076,0.04 0.216,0.124 0.073,0.046 0.071,0.047 0.067,0.046 0.072,0.046 0.067,0.05 0.066,0.048 0.068,0.051 0.071,0.05 0.062,0.053 0.067,0.056 0.066,0.057 0.063,0.051 0.066,0.056 0.062,0.057 0.062,0.061 0.066,0.057 0.057,0.062 0.185,0.185 0.057,0.067 0.056,0.062 0.056,0.066 0.113,0.134 0.052,0.067 0.056,0.066 0.051,0.067 0.052,0.067 0.051,0.072 0.046,0.066 0.052,0.073 0.046,0.072 0.047,0.072 0.046,0.071 0.04,0.073 0.047,0.072 0.041,0.077 0.041,0.072 0.041,0.077 0.042,0.076 0.036,0.073 0.04,0.076 0.036,0.078 0.036,0.082 0.037,0.077 0.036,0.082 0.03,0.077 0.03,0.083 0.032,0.081 0.031,0.082 0.061,0.165 0.026,0.083 0.026,0.082 0.025,0.087 0.027,0.088 0.025,0.082 0.02,0.087 0.026,0.088 0.021,0.087 0.02,0.092 0.016,0.087 0.02,0.088 0.015,0.093 0.016,0.092 0.015,0.092 0.016,0.087 0.016,0.099 0.01,0.092 0.015,0.093 0.01,0.092 0.01,0.097 0.006,0.098 0.01,0.092 0.005,0.098 0.01,0.098 0.006,0.098 v 0.102 l 0.005,0.098 v 0.098 l 0.005,0.102 v 0.2 l -0.005,0.104 v 0.097 l -0.005,0.103 v 0.098 l -0.006,0.097 -0.01,0.098 -0.005,0.098 -0.01,0.097 -0.005,0.093 -0.01,0.097 -0.011,0.093 -0.016,0.097 -0.01,0.092 -0.015,0.093 -0.016,0.093 -0.015,0.092 -0.016,0.088 -0.015,0.092 -0.02,0.088 -0.016,0.092 -0.04,0.175 -0.026,0.087 -0.021,0.088 -0.025,0.086 -0.027,0.083 -0.025,0.087 -0.026,0.083 -0.026,0.087 -0.03,0.082 -0.03,0.082 -0.063,0.165 -0.03,0.077 -0.031,0.082 -0.036,0.077 -0.037,0.082 -0.072,0.155 -0.04,0.077 -0.036,0.077 -0.042,0.077 -0.04,0.072 -0.042,0.076 -0.041,0.073 -0.046,0.072 -0.041,0.077 -0.046,0.072 -0.047,0.071 -0.046,0.067 -0.052,0.072 -0.046,0.072 -0.051,0.067 -0.052,0.066 -0.051,0.073 -0.056,0.067 -0.052,0.067 -0.056,0.066 -0.057,0.062 -0.056,0.066 -0.056,0.068 -0.057,0.061 -0.123,0.124 -0.062,0.061 -0.057,0.062 -0.066,0.062 -0.062,0.056 -0.062,0.057 -0.066,0.056 -0.063,0.057 -0.066,0.05 -0.067,0.058 -0.062,0.051 -0.071,0.05 -0.068,0.052 -0.066,0.052 -0.067,0.046 -0.072,0.047 -0.067,0.045 -0.071,0.047 -0.073,0.046 -0.071,0.04 -0.073,0.048 -0.072,0.04 -0.076,0.041 -0.073,0.042 -0.071,0.036 -0.078,0.036 -0.077,0.041 -0.076,0.036 -0.078,0.03 -0.076,0.036 -0.078,0.032 -0.082,0.036 -0.077,0.03 -0.082,0.026 -0.077,0.031 -0.083,0.026 -0.082,0.03 -0.082,0.026 -0.082,0.026 -0.087,0.02 -0.083,0.026 -0.087,0.02 -0.083,0.021 -0.174,0.041 -0.087,0.015 -0.088,0.021 -0.087,0.015 -0.093,0.016 -0.087,0.016 -0.093,0.01 -0.087,0.015 -0.093,0.01 -0.092,0.01 -0.093,0.01 -0.092,0.006 -0.098,0.01 -0.092,0.006 -0.098,0.004 -0.092,0.006 h -0.098 l -0.097,0.005 h -0.391 l -0.098,-0.005 h -0.097 l -0.195,-0.01 -0.093,-0.006 -0.097,-0.01 -0.093,-0.005 -0.092,-0.01 -0.093,-0.01 -0.092,-0.01 -0.093,-0.016 -0.087,-0.01 -0.093,-0.016 -0.087,-0.016 -0.093,-0.015 -0.087,-0.02 -0.088,-0.016 -0.087,-0.02 -0.087,-0.02 L 89.837,78.151 89.75,78.131 89.667,78.11 89.579,78.084 89.497,78.058 89.415,78.032 89.333,78.007 89.251,77.977 89.168,77.95 89.091,77.92 89.009,77.889 88.932,77.857 88.85,77.821 88.773,77.791 88.696,77.755 88.619,77.719 88.542,77.683 88.47,77.647 88.392,77.606 88.321,77.57 88.249,77.529 88.172,77.488 88.1,77.442 88.028,77.4 87.956,77.354 87.889,77.307 87.817,77.261 87.751,77.216 87.678,77.169 87.612,77.118 87.478,77.015 87.411,76.964 87.345,76.912 87.283,76.856 87.216,76.804 87.154,76.747 87.087,76.691 87.027,76.63 86.964,76.573 86.902,76.511 86.846,76.45 86.722,76.327 86.666,76.265 86.61,76.198 86.553,76.136 86.44,76.002 86.388,75.936 86.286,75.802 86.235,75.736 86.183,75.664 86.137,75.597 86.085,75.525 86.039,75.453 85.993,75.381 85.947,75.309 85.905,75.237 85.859,75.165 85.819,75.088 85.777,75.016 85.736,74.939 85.695,74.862 85.659,74.79 85.619,74.713 85.582,74.63 85.546,74.554 85.51,74.476 l -0.03,-0.082 -0.037,-0.077 -0.03,-0.082 -0.032,-0.083 -0.03,-0.082 -0.031,-0.082 -0.026,-0.082 -0.03,-0.082 -0.027,-0.087 -0.025,-0.082 -0.026,-0.088 -0.02,-0.087 -0.026,-0.088 -0.041,-0.174 -0.02,-0.088 -0.021,-0.093 -0.016,-0.086 -0.02,-0.093 -0.016,-0.093 -0.015,-0.092 -0.015,-0.092 -0.01,-0.093 -0.016,-0.093 -0.01,-0.092 -0.01,-0.098 -0.011,-0.092 -0.01,-0.098 -0.006,-0.097 -0.01,-0.098 -0.01,-0.195 -0.005,-0.103 v -0.098 l -0.005,-0.102 v -0.406 l 0.005,-0.098 v -0.102 l 0.01,-0.197 0.006,-0.102 0.01,-0.097 0.005,-0.093 0.02,-0.195 0.01,-0.093 0.01,-0.097 0.016,-0.093 0.01,-0.093 0.016,-0.092 0.015,-0.093 0.016,-0.092 0.02,-0.088 0.016,-0.092 0.02,-0.087 0.02,-0.093 0.042,-0.174 0.026,-0.088 0.02,-0.087 0.026,-0.082 0.025,-0.088 0.026,-0.082 0.031,-0.088 0.026,-0.082 0.061,-0.164 0.031,-0.082 0.031,-0.077 0.036,-0.082 0.03,-0.077 0.037,-0.082 0.036,-0.078 0.036,-0.077 0.041,-0.077 0.036,-0.077 0.04,-0.077 0.042,-0.072 0.041,-0.077 0.041,-0.072 0.046,-0.077 0.042,-0.072 0.046,-0.072 0.046,-0.072 0.046,-0.067 0.052,-0.071 0.046,-0.073 0.052,-0.066 0.051,-0.067 0.051,-0.072 0.051,-0.067 0.052,-0.067 0.056,-0.061 0.114,-0.134 0.056,-0.062 0.056,-0.066 0.124,-0.124 0.056,-0.061 0.062,-0.057 0.062,-0.061 0.061,-0.057 0.067,-0.056 0.062,-0.057 0.067,-0.057 0.062,-0.05 0.066,-0.058 0.067,-0.051 0.067,-0.051 0.067,-0.052 0.066,-0.046 0.073,-0.051 0.066,-0.046 0.072,-0.047 0.067,-0.046 0.072,-0.041 0.072,-0.046 0.072,-0.041 0.077,-0.042 0.143,-0.082 0.078,-0.036 0.072,-0.04 0.154,-0.073 0.077,-0.03 0.077,-0.037 0.082,-0.03 0.077,-0.037 0.082,-0.03 0.077,-0.026 0.083,-0.031 0.082,-0.025 0.082,-0.032 0.082,-0.025 0.083,-0.021 0.087,-0.025 0.083,-0.026 0.087,-0.02 0.082,-0.021 0.087,-0.02 0.087,-0.022 0.088,-0.014 0.087,-0.016 0.093,-0.02 0.087,-0.01 0.093,-0.017 0.087,-0.015 0.093,-0.01 0.092,-0.01 0.278,-0.031 0.097,-0.006 0.093,-0.004 0.097,-0.01 h 0.098 l 0.097,-0.006 h 0.098 l 0.098,-0.005 z m -0.206,11.916 h 0.211 l 0.108,-0.005 0.097,-0.005 0.103,-0.005 0.098,-0.01 0.098,-0.016 0.098,-0.015 0.092,-0.015 0.092,-0.022 0.093,-0.025 0.093,-0.02 0.087,-0.031 0.087,-0.031 0.082,-0.03 0.087,-0.032 0.083,-0.041 0.077,-0.036 0.082,-0.04 0.077,-0.047 0.078,-0.046 0.072,-0.047 0.076,-0.051 0.072,-0.052 0.067,-0.056 0.072,-0.057 0.067,-0.061 0.129,-0.129 0.06,-0.066 0.062,-0.072 0.063,-0.073 0.056,-0.071 0.056,-0.078 0.051,-0.081 0.057,-0.078 0.051,-0.082 0.047,-0.088 0.046,-0.086 0.046,-0.088 0.047,-0.092 0.04,-0.093 0.042,-0.092 0.036,-0.098 0.04,-0.098 0.031,-0.098 0.037,-0.102 0.03,-0.108 0.032,-0.103 0.025,-0.113 0.026,-0.108 0.026,-0.113 0.02,-0.113 0.02,-0.118 0.021,-0.118 0.015,-0.118 0.016,-0.124 0.016,-0.123 0.02,-0.257 0.005,-0.128 0.01,-0.134 V 71.394 L 95.392,71.26 V 70.982 L 95.386,70.844 V 70.71 l -0.01,-0.133 -0.005,-0.13 -0.01,-0.127 -0.01,-0.124 -0.016,-0.128 -0.016,-0.118 -0.015,-0.124 -0.02,-0.118 -0.021,-0.113 -0.02,-0.118 -0.026,-0.114 -0.051,-0.215 -0.032,-0.108 -0.03,-0.103 -0.037,-0.102 -0.03,-0.104 -0.041,-0.097 -0.036,-0.098 -0.042,-0.092 -0.04,-0.092 -0.047,-0.093 -0.046,-0.087 -0.046,-0.088 -0.047,-0.082 -0.051,-0.082 -0.057,-0.082 -0.05,-0.077 -0.057,-0.077 -0.056,-0.078 -0.063,-0.072 -0.061,-0.066 -0.061,-0.073 -0.068,-0.06 -0.061,-0.063 -0.067,-0.061 -0.072,-0.057 -0.067,-0.056 -0.072,-0.057 -0.076,-0.046 -0.072,-0.052 -0.078,-0.046 -0.077,-0.041 -0.082,-0.041 -0.077,-0.042 -0.083,-0.035 -0.087,-0.036 -0.082,-0.03 -0.087,-0.032 -0.087,-0.026 -0.093,-0.025 -0.093,-0.02 -0.092,-0.021 -0.092,-0.02 -0.098,-0.016 -0.196,-0.02 -0.103,-0.01 -0.097,-0.006 -0.108,-0.006 h -0.21 l -0.104,0.006 -0.102,0.005 -0.097,0.01 -0.196,0.021 -0.098,0.015 -0.092,0.02 -0.098,0.021 -0.087,0.021 -0.093,0.025 -0.087,0.026 -0.087,0.031 -0.088,0.03 -0.082,0.037 -0.082,0.035 -0.082,0.042 -0.078,0.04 -0.077,0.042 -0.077,0.046 -0.076,0.052 -0.073,0.046 -0.072,0.057 -0.067,0.056 -0.071,0.057 -0.067,0.061 -0.067,0.062 -0.062,0.061 -0.061,0.073 -0.062,0.066 -0.062,0.072 -0.112,0.155 -0.057,0.077 -0.052,0.082 -0.051,0.082 -0.046,0.082 -0.052,0.088 -0.04,0.087 -0.047,0.093 -0.082,0.184 -0.036,0.098 -0.041,0.097 -0.031,0.104 -0.036,0.102 -0.03,0.103 -0.032,0.108 -0.025,0.107 -0.026,0.108 -0.026,0.114 -0.02,0.118 -0.021,0.113 -0.02,0.118 -0.015,0.124 -0.016,0.118 -0.016,0.128 -0.01,0.124 -0.01,0.128 -0.005,0.128 -0.01,0.134 -0.006,0.134 v 0.55 l 0.005,0.133 0.011,0.134 0.005,0.128 0.01,0.129 0.01,0.128 0.016,0.123 0.016,0.124 0.014,0.118 0.021,0.118 0.02,0.118 0.021,0.113 0.026,0.113 0.026,0.108 0.025,0.113 0.032,0.103 0.03,0.108 0.036,0.102 0.03,0.098 0.042,0.098 0.036,0.098 0.082,0.185 0.046,0.092 0.041,0.088 0.052,0.086 0.046,0.088 0.051,0.082 0.052,0.078 0.057,0.081 0.056,0.078 0.056,0.071 0.062,0.073 0.062,0.072 0.061,0.066 0.062,0.067 0.067,0.062 0.067,0.061 0.071,0.057 0.067,0.056 0.072,0.052 0.073,0.051 0.076,0.047 0.077,0.046 0.077,0.046 0.078,0.041 0.082,0.036 0.082,0.04 0.082,0.032 0.088,0.031 0.174,0.061 0.093,0.021 0.087,0.025 0.098,0.021 0.092,0.016 0.098,0.015 0.098,0.016 0.098,0.01 0.097,0.005 0.102,0.005 z" />
</svg>
